<mxfile host="app.diagrams.net" modified="2021-05-29T13:13:01.236Z" agent="5.0 (Windows NT 10.0; Win64; x64) AppleWebKit/537.36 (KHTML, like Gecko) Chrome/90.0.4430.212 Safari/537.36" etag="gKg9SyuR_SzJ-DDT4jgJ" version="14.7.3" type="github">
  <diagram id="YGJ4x8Gn3MbVI7VoSBS1" name="Page-1">
    <mxGraphModel dx="1024" dy="1631" grid="1" gridSize="10" guides="1" tooltips="1" connect="1" arrows="1" fold="1" page="1" pageScale="1" pageWidth="850" pageHeight="1100" math="0" shadow="0">
      <root>
        <mxCell id="0" />
        <mxCell id="1" parent="0" />
        <mxCell id="_064ASVz-lMSBJUfyT2n-1" value="" style="whiteSpace=wrap;html=1;aspect=fixed;" vertex="1" parent="1">
          <mxGeometry x="120" y="75" width="450" height="450" as="geometry" />
        </mxCell>
        <mxCell id="_064ASVz-lMSBJUfyT2n-2" value="" style="shape=cylinder3;whiteSpace=wrap;html=1;boundedLbl=1;backgroundOutline=1;size=15;" vertex="1" parent="1">
          <mxGeometry x="680" y="160" width="110" height="200" as="geometry" />
        </mxCell>
        <mxCell id="_064ASVz-lMSBJUfyT2n-36" style="edgeStyle=orthogonalEdgeStyle;rounded=0;orthogonalLoop=1;jettySize=auto;html=1;exitX=1;exitY=0.5;exitDx=0;exitDy=0;" edge="1" parent="1" source="_064ASVz-lMSBJUfyT2n-3">
          <mxGeometry relative="1" as="geometry">
            <mxPoint x="490" y="130" as="targetPoint" />
          </mxGeometry>
        </mxCell>
        <mxCell id="_064ASVz-lMSBJUfyT2n-3" value="" style="rounded=1;whiteSpace=wrap;html=1;" vertex="1" parent="1">
          <mxGeometry x="180" y="100" width="120" height="60" as="geometry" />
        </mxCell>
        <mxCell id="_064ASVz-lMSBJUfyT2n-28" style="edgeStyle=orthogonalEdgeStyle;rounded=0;orthogonalLoop=1;jettySize=auto;html=1;exitX=1;exitY=0.5;exitDx=0;exitDy=0;" edge="1" parent="1" source="_064ASVz-lMSBJUfyT2n-4">
          <mxGeometry relative="1" as="geometry">
            <mxPoint x="490" y="220" as="targetPoint" />
          </mxGeometry>
        </mxCell>
        <mxCell id="_064ASVz-lMSBJUfyT2n-4" value="" style="rounded=1;whiteSpace=wrap;html=1;" vertex="1" parent="1">
          <mxGeometry x="180" y="190" width="120" height="60" as="geometry" />
        </mxCell>
        <mxCell id="_064ASVz-lMSBJUfyT2n-33" style="edgeStyle=orthogonalEdgeStyle;rounded=0;orthogonalLoop=1;jettySize=auto;html=1;exitX=1;exitY=0.5;exitDx=0;exitDy=0;" edge="1" parent="1" source="_064ASVz-lMSBJUfyT2n-5">
          <mxGeometry relative="1" as="geometry">
            <mxPoint x="490" y="300" as="targetPoint" />
          </mxGeometry>
        </mxCell>
        <mxCell id="_064ASVz-lMSBJUfyT2n-5" value="" style="rounded=1;whiteSpace=wrap;html=1;" vertex="1" parent="1">
          <mxGeometry x="180" y="270" width="120" height="60" as="geometry" />
        </mxCell>
        <mxCell id="_064ASVz-lMSBJUfyT2n-34" style="edgeStyle=orthogonalEdgeStyle;rounded=0;orthogonalLoop=1;jettySize=auto;html=1;exitX=1;exitY=0.5;exitDx=0;exitDy=0;" edge="1" parent="1" source="_064ASVz-lMSBJUfyT2n-6">
          <mxGeometry relative="1" as="geometry">
            <mxPoint x="490" y="390" as="targetPoint" />
          </mxGeometry>
        </mxCell>
        <mxCell id="_064ASVz-lMSBJUfyT2n-6" value="" style="rounded=1;whiteSpace=wrap;html=1;" vertex="1" parent="1">
          <mxGeometry x="180" y="360" width="120" height="60" as="geometry" />
        </mxCell>
        <mxCell id="_064ASVz-lMSBJUfyT2n-7" value="&lt;h1&gt;Backend Design&lt;/h1&gt;&lt;p&gt;Backend Designing before moving into actual coding.&lt;/p&gt;" style="text;html=1;strokeColor=none;fillColor=none;spacing=5;spacingTop=-20;whiteSpace=wrap;overflow=hidden;rounded=0;" vertex="1" parent="1">
          <mxGeometry x="150" y="-70" width="620" height="80" as="geometry" />
        </mxCell>
        <mxCell id="_064ASVz-lMSBJUfyT2n-8" value="Fetch Details" style="text;html=1;strokeColor=none;fillColor=none;align=center;verticalAlign=middle;whiteSpace=wrap;rounded=0;" vertex="1" parent="1">
          <mxGeometry x="180" y="80" width="100" height="20" as="geometry" />
        </mxCell>
        <mxCell id="_064ASVz-lMSBJUfyT2n-9" value="Save Details" style="text;html=1;strokeColor=none;fillColor=none;align=center;verticalAlign=middle;whiteSpace=wrap;rounded=0;" vertex="1" parent="1">
          <mxGeometry x="170" y="170" width="100" height="20" as="geometry" />
        </mxCell>
        <mxCell id="_064ASVz-lMSBJUfyT2n-10" value="Delete Details" style="text;html=1;strokeColor=none;fillColor=none;align=center;verticalAlign=middle;whiteSpace=wrap;rounded=0;" vertex="1" parent="1">
          <mxGeometry x="180" y="250" width="100" height="20" as="geometry" />
        </mxCell>
        <mxCell id="_064ASVz-lMSBJUfyT2n-11" value="Update Details" style="text;html=1;strokeColor=none;fillColor=none;align=center;verticalAlign=middle;whiteSpace=wrap;rounded=0;" vertex="1" parent="1">
          <mxGeometry x="180" y="340" width="100" height="20" as="geometry" />
        </mxCell>
        <mxCell id="_064ASVz-lMSBJUfyT2n-32" style="edgeStyle=orthogonalEdgeStyle;rounded=0;orthogonalLoop=1;jettySize=auto;html=1;exitX=1;exitY=0.5;exitDx=0;exitDy=0;" edge="1" parent="1" source="_064ASVz-lMSBJUfyT2n-12">
          <mxGeometry relative="1" as="geometry">
            <mxPoint x="490" y="470" as="targetPoint" />
          </mxGeometry>
        </mxCell>
        <mxCell id="_064ASVz-lMSBJUfyT2n-12" value="" style="rounded=1;whiteSpace=wrap;html=1;" vertex="1" parent="1">
          <mxGeometry x="180" y="440" width="120" height="60" as="geometry" />
        </mxCell>
        <mxCell id="_064ASVz-lMSBJUfyT2n-13" value="fetch all details" style="text;html=1;strokeColor=none;fillColor=none;align=center;verticalAlign=middle;whiteSpace=wrap;rounded=0;" vertex="1" parent="1">
          <mxGeometry x="190" y="420" width="100" height="20" as="geometry" />
        </mxCell>
        <mxCell id="_064ASVz-lMSBJUfyT2n-14" value="GET call" style="text;html=1;strokeColor=none;fillColor=none;align=center;verticalAlign=middle;whiteSpace=wrap;rounded=0;" vertex="1" parent="1">
          <mxGeometry x="190" y="120" width="80" height="20" as="geometry" />
        </mxCell>
        <mxCell id="_064ASVz-lMSBJUfyT2n-15" value="POST call" style="text;html=1;strokeColor=none;fillColor=none;align=center;verticalAlign=middle;whiteSpace=wrap;rounded=0;" vertex="1" parent="1">
          <mxGeometry x="190" y="210" width="80" height="20" as="geometry" />
        </mxCell>
        <mxCell id="_064ASVz-lMSBJUfyT2n-16" value="DELETE call" style="text;html=1;strokeColor=none;fillColor=none;align=center;verticalAlign=middle;whiteSpace=wrap;rounded=0;" vertex="1" parent="1">
          <mxGeometry x="190" y="285" width="80" height="20" as="geometry" />
        </mxCell>
        <mxCell id="_064ASVz-lMSBJUfyT2n-17" value="PUT call" style="text;html=1;strokeColor=none;fillColor=none;align=center;verticalAlign=middle;whiteSpace=wrap;rounded=0;" vertex="1" parent="1">
          <mxGeometry x="190" y="380" width="80" height="20" as="geometry" />
        </mxCell>
        <mxCell id="_064ASVz-lMSBJUfyT2n-18" value="GET call" style="text;html=1;strokeColor=none;fillColor=none;align=center;verticalAlign=middle;whiteSpace=wrap;rounded=0;" vertex="1" parent="1">
          <mxGeometry x="190" y="460" width="80" height="20" as="geometry" />
        </mxCell>
        <mxCell id="_064ASVz-lMSBJUfyT2n-20" value="Mongo DB" style="text;html=1;strokeColor=none;fillColor=none;align=center;verticalAlign=middle;whiteSpace=wrap;rounded=0;" vertex="1" parent="1">
          <mxGeometry x="710" y="260" width="60" height="20" as="geometry" />
        </mxCell>
        <mxCell id="_064ASVz-lMSBJUfyT2n-21" value="&lt;h1&gt;API Design&lt;/h1&gt;&lt;p&gt;Consist of API Calls to be made&lt;/p&gt;" style="text;html=1;strokeColor=none;fillColor=none;spacing=5;spacingTop=-20;whiteSpace=wrap;overflow=hidden;rounded=0;" vertex="1" parent="1">
          <mxGeometry x="150" width="190" height="80" as="geometry" />
        </mxCell>
        <mxCell id="_064ASVz-lMSBJUfyT2n-22" value="&lt;h1&gt;DB Details&lt;/h1&gt;&lt;p&gt;Mongo DB&lt;/p&gt;" style="text;html=1;strokeColor=none;fillColor=none;spacing=5;spacingTop=-20;whiteSpace=wrap;overflow=hidden;rounded=0;" vertex="1" parent="1">
          <mxGeometry x="655" y="5" width="160" height="70" as="geometry" />
        </mxCell>
        <mxCell id="_064ASVz-lMSBJUfyT2n-31" value="" style="endArrow=none;html=1;" edge="1" parent="1">
          <mxGeometry width="50" height="50" relative="1" as="geometry">
            <mxPoint x="490" y="380" as="sourcePoint" />
            <mxPoint x="490" y="280" as="targetPoint" />
            <Array as="points">
              <mxPoint x="490" y="490" />
              <mxPoint x="490" y="330" />
            </Array>
          </mxGeometry>
        </mxCell>
        <mxCell id="_064ASVz-lMSBJUfyT2n-35" value="" style="endArrow=none;html=1;" edge="1" parent="1">
          <mxGeometry width="50" height="50" relative="1" as="geometry">
            <mxPoint x="490" y="215" as="sourcePoint" />
            <mxPoint x="490" y="115" as="targetPoint" />
            <Array as="points">
              <mxPoint x="490" y="325" />
              <mxPoint x="490" y="165" />
            </Array>
          </mxGeometry>
        </mxCell>
        <mxCell id="_064ASVz-lMSBJUfyT2n-37" value="" style="endArrow=classic;html=1;entryX=-0.029;entryY=0.598;entryDx=0;entryDy=0;entryPerimeter=0;" edge="1" parent="1" target="_064ASVz-lMSBJUfyT2n-2">
          <mxGeometry width="50" height="50" relative="1" as="geometry">
            <mxPoint x="490" y="280" as="sourcePoint" />
            <mxPoint x="450" y="210" as="targetPoint" />
            <Array as="points">
              <mxPoint x="490" y="280" />
            </Array>
          </mxGeometry>
        </mxCell>
      </root>
    </mxGraphModel>
  </diagram>
</mxfile>
